{
	"asset":{
		"generator":"Khronos glTF Blender I/O v5.1.19",
		"version":"2.0"
	},
	"scene":0,
	"scenes":[
		{
			"name":"Scene",
			"nodes":[
				0
			]
		}
	],
	"nodes":[
		{
			"mesh":0,
			"name":"monster_left_leg_bottom_piece",
			"scale":[
				0.20846283435821533,
				0.20846283435821533,
				0.20846283435821533
			],
			"translation":[
				0.00029850006103515625,
				0.002574739046394825,
				-0.0022120848298072815
			]
		}
	],
	"materials":[
		{
			"doubleSided":true,
			"name":"monster_material",
			"pbrMetallicRoughness":{
				"baseColorTexture":{
					"index":0
				},
				"metallicFactor":0
			}
		}
	],
	"meshes":[
		{
			"name":"Cube.011",
			"primitives":[
				{
					"attributes":{
						"POSITION":0,
						"NORMAL":1,
						"TEXCOORD_0":2
					},
					"indices":3,
					"material":0
				}
			]
		}
	],
	"textures":[
		{
			"sampler":0,
			"source":0
		}
	],
	"images":[
		{
			"mimeType":"image/png",
			"name":"ase_entity_textures",
			"uri":"ase_entity_textures.png"
		}
	],
	"accessors":[
		{
			"bufferView":0,
			"componentType":5126,
			"count":44,
			"max":[
				0.8705381155014038,
				0.2480335235595703,
				0.20023295283317566
			],
			"min":[
				-0.19469907879829407,
				-1.7850055694580078,
				-0.1863013505935669
			],
			"type":"VEC3"
		},
		{
			"bufferView":1,
			"componentType":5126,
			"count":44,
			"type":"VEC3"
		},
		{
			"bufferView":2,
			"componentType":5126,
			"count":44,
			"type":"VEC2"
		},
		{
			"bufferView":3,
			"componentType":5123,
			"count":84,
			"type":"SCALAR"
		}
	],
	"bufferViews":[
		{
			"buffer":0,
			"byteLength":528,
			"byteOffset":0,
			"target":34962
		},
		{
			"buffer":0,
			"byteLength":528,
			"byteOffset":528,
			"target":34962
		},
		{
			"buffer":0,
			"byteLength":352,
			"byteOffset":1056,
			"target":34962
		},
		{
			"buffer":0,
			"byteLength":168,
			"byteOffset":1408,
			"target":34963
		}
	],
	"samplers":[
		{
			"magFilter":9728,
			"minFilter":9984
		}
	],
	"buffers":[
		{
			"byteLength":1576,
			"uri":"monster_left_leg_bottom_piece.bin"
		}
	]
}
